<svg xmlns="http://www.w3.org/2000/svg" width="146.63" height="41.69" viewBox="0 0 146.63 41.69"><title>header_logo</title><g id="b7305c40-19e9-4c93-909e-1e5f1619c56f" data-name="レイヤー 2"><g id="e51f506a-7555-44ff-af50-58d7195c17d9" data-name="レイヤー 3"><path d="M62.87,17a.74.74,0,0,1-.75-1l1-3.13a1.57,1.57,0,0,1,1.4-1h4.84a1.57,1.57,0,0,0,1.41-1l.48-1.63a1.42,1.42,0,0,1,1.37-.91h1.73a.73.73,0,0,1,.74,1L73,15.93a1.57,1.57,0,0,1-1.4,1Zm6.78-2.67a.75.75,0,0,0-.75-1H67.16a1.58,1.58,0,0,0-1.4,1l-.06.17a.74.74,0,0,0,.75,1h1.74a1.57,1.57,0,0,0,1.4-1Z" style="fill:#f7701b"/><path d="M77.61,11c-.59,0-1-.33-.83-.74a1.39,1.39,0,0,1,1.31-.74h1.72c.6,0,1,.33.84.74a1.39,1.39,0,0,1-1.31.74ZM75.71,17a.74.74,0,0,1-.75-1l1-3.13a1.57,1.57,0,0,1,1.4-1H79.1a.74.74,0,0,1,.75,1l-1,3.13a1.57,1.57,0,0,1-1.4,1Z" style="fill:#f7701b"/><path d="M80.86,19.16c-.59,0-1-.25-.9-.55s.66-.55,1.25-.55h4.84c.59,0,1.16-.25,1.26-.56S87,17,86.41,17H81.57a.74.74,0,0,1-.75-1l1-3.14a1.57,1.57,0,0,1,1.4-1H92a.74.74,0,0,1,.75,1L91,18.14a1.57,1.57,0,0,1-1.4,1Zm7.48-4.88a.74.74,0,0,0-.74-1H85.86a1.58,1.58,0,0,0-1.41,1l0,.17a.74.74,0,0,0,.75,1h1.73a1.57,1.57,0,0,0,1.41-1Z" style="fill:#f7701b"/><path d="M96.31,11c-.59,0-1-.33-.84-.74a1.39,1.39,0,0,1,1.31-.74h1.73c.59,0,1,.33.84.74A1.39,1.39,0,0,1,98,11ZM94.41,17a.74.74,0,0,1-.75-1l1-3.13a1.57,1.57,0,0,1,1.4-1H97.8a.73.73,0,0,1,.74,1l-1,3.13a1.57,1.57,0,0,1-1.4,1Z" style="fill:#f7701b"/><path d="M106.5,13.25a1.6,1.6,0,0,0-1.41,1l-.17.55a.73.73,0,0,0,.74,1h.19c.59,0,1,.25.9.56s-.66.55-1.26.55h-4.06a.74.74,0,0,1-.75-1l.54-1.66c.18-.56.06-1-.26-1s-.47-.34-.34-.74a1,1,0,0,1,.82-.74c.32,0,.73-.46.91-1l.05-.17a1.58,1.58,0,0,1,1.41-1h1.73a.73.73,0,0,1,.74,1l0,.17a.74.74,0,0,0,.74,1h.58c.59,0,1,.33.84.74a1.44,1.44,0,0,1-1.32.74Z" style="fill:#f7701b"/><path d="M120.13,15.93a1.58,1.58,0,0,1-1.41,1H110a.73.73,0,0,1-.74-1l.41-1.28a1.57,1.57,0,0,1,1.4-1h4.84c.59,0,1.13-.16,1.2-.37s-.37-.36-1-.36h-4.84c-.59,0-1-.26-.9-.56s.67-.56,1.26-.56h8.72a.73.73,0,0,1,.74,1Zm-3.74-.46c.07-.2-.36-.37-1-.37H113.7c-.59,0-1.13.17-1.19.37s.36.37.95.37h1.74C115.79,15.84,116.33,15.67,116.39,15.47Z" style="fill:#f7701b"/><path d="M122.84,17a.74.74,0,0,1-.74-1l1.84-5.72a1.57,1.57,0,0,1,1.4-1h1.73a.74.74,0,0,1,.74,1L126,15.93a1.58,1.58,0,0,1-1.41,1Z" style="fill:#f7701b"/><path d="M51.87,30.67a.74.74,0,0,1-.75-1L51.65,28a.74.74,0,0,0-.74-1H49.17a1.59,1.59,0,0,0-1.41,1l-.52,1.65a1.6,1.6,0,0,1-1.41,1H44.1a.73.73,0,0,1-.74-1l2-6.69a1.57,1.57,0,0,1,1.4-1H48.5a.73.73,0,0,1,.74,1l-.34,1.5a.74.74,0,0,0,.75,1h4.83a.74.74,0,0,1,.75,1l-1,3.13a1.58,1.58,0,0,1-1.41,1Z" style="fill:#f7701b"/><path d="M56.94,30.67a.73.73,0,0,1-.74-1l1-3.14a1.6,1.6,0,0,1,1.41-1h8.72a.73.73,0,0,1,.74,1l-1,3.14a1.56,1.56,0,0,1-1.4,1ZM64.49,28a.74.74,0,0,0-.74-1H62a1.59,1.59,0,0,0-1.41,1l-.05.17a.74.74,0,0,0,.75,1H63a1.57,1.57,0,0,0,1.4-1Z" style="fill:#f7701b"/><path d="M69.78,30.67a.73.73,0,0,1-.74-1l1.83-5.72a1.59,1.59,0,0,1,1.41-1H74a.74.74,0,0,1,.74,1l-1.83,5.72a1.6,1.6,0,0,1-1.41,1Z" style="fill:#f7701b"/><path d="M75.64,30.67a.74.74,0,0,1-.75-1l1.84-5.72a1.58,1.58,0,0,1,1.41-1h1.72a.74.74,0,0,1,.75,1l-1.84,5.72a1.57,1.57,0,0,1-1.4,1Z" style="fill:#f7701b"/><path d="M80.79,32.88c-.59,0-1-.25-.9-.55s.66-.55,1.25-.55H86c.59,0,1.16-.25,1.26-.56s-.31-.55-.9-.55H81.5a.74.74,0,0,1-.75-1l1-3.14a1.57,1.57,0,0,1,1.4-1h1a.73.73,0,0,1,.74,1l-.53,1.66a.74.74,0,0,0,.75,1h1.74a1.57,1.57,0,0,0,1.4-1l.53-1.66a1.57,1.57,0,0,1,1.4-1h1.73a.74.74,0,0,1,.75,1l-1.72,5.35a1.57,1.57,0,0,1-1.4,1Z" style="fill:#f7701b"/><path d="M105.76,29.79a2.34,2.34,0,0,1-1.69.88h-1.73a1.15,1.15,0,0,1-1.13-1.07l-.08-1.48c0-.59-.34-.68-.67-.19l-1.29,1.86a2.34,2.34,0,0,1-1.69.88H95.74a1.15,1.15,0,0,1-1.13-1.07l-.16-3a1,1,0,0,1,1-1.07h1.73a1.14,1.14,0,0,1,1.13,1.07l.06,1c0,.59.33.68.67.19l.94-1.35a2.3,2.3,0,0,1,1.69-.88h2.12a1.14,1.14,0,0,1,1.13,1.07l0,1c0,.59.33.68.67.19l.93-1.35a2,2,0,0,1,1.4-.88c.42,0,.49.39.16.88Z" style="fill:#f7701b"/><path d="M109.6,30.67a.74.74,0,0,1-.75-1l1-3.14a1.57,1.57,0,0,1,1.4-1H120a.73.73,0,0,1,.74,1l-1,3.14a1.57,1.57,0,0,1-1.41,1ZM117.14,28a.74.74,0,0,0-.74-1h-1.74a1.58,1.58,0,0,0-1.4,1l-.06.17a.74.74,0,0,0,.75,1h1.74a1.57,1.57,0,0,0,1.4-1Z" style="fill:#f7701b"/><path d="M122.17,30.67a.74.74,0,0,1-.75-1l1-3.14a1.57,1.57,0,0,1,1.4-1h8.72a.74.74,0,0,1,.75,1l-1,3.14a1.57,1.57,0,0,1-1.41,1ZM129.72,28a.75.75,0,0,0-.75-1h-1.74a1.58,1.58,0,0,0-1.4,1l-.06.17a.74.74,0,0,0,.75,1h1.74a1.57,1.57,0,0,0,1.4-1Z" style="fill:#f7701b"/><path d="M134.74,30.67a.74.74,0,0,1-.75-1l1-3.13a1.58,1.58,0,0,1,1.41-1h4.84a1.57,1.57,0,0,0,1.4-1l.06-.17a1.57,1.57,0,0,1,1.4-1h1.73a.74.74,0,0,1,.75,1l-1.72,5.35a1.57,1.57,0,0,1-1.4,1ZM141.51,28a.74.74,0,0,0-.75-1H139a1.59,1.59,0,0,0-1.41,1l-.05.17a.73.73,0,0,0,.74,1h1.74a1.6,1.6,0,0,0,1.41-1Z" style="fill:#f7701b"/><path d="M39,24l-.78,15.88A1.76,1.76,0,0,1,37.1,41.5a3.25,3.25,0,0,1-2.52-.14L24.32,37.1a2.77,2.77,0,0,1-2-2.59,2.08,2.08,0,0,1,.15-.78l4.12-10.62a.71.71,0,0,0,.06-.46c-.09-.63-.6-1-1.51-1.28L18.62,19.6a2.56,2.56,0,0,0-1.29,0,2.24,2.24,0,0,0-1,.55L8.72,27.79a3,3,0,0,1-1.48.88,2.38,2.38,0,0,1-1.59,0L.57,26.53c-.66-.27-.74-.74-.27-1.4a2.92,2.92,0,0,1,.43-.44L14.88,13.46,1.46,10.6q-.52-.11-.09-.42A1.37,1.37,0,0,1,1.62,10L7.41,7.31a2.07,2.07,0,0,1,.66-.19,2,2,0,0,1,.68,0l5.37.78a2.35,2.35,0,0,0,.74,0,1.54,1.54,0,0,0,.64-.22l9.41-5.19a1.42,1.42,0,0,1,.5-.15,2.26,2.26,0,0,1,.63,0l.58.07c.39,0,.57.11.55.25a.13.13,0,0,1-.07.08L18.89,9.07a1.36,1.36,0,0,1-.65.25,2.39,2.39,0,0,1-.84,0l-6.23-1a2.43,2.43,0,0,0-.75,0,2.6,2.6,0,0,0-.68.21L7.37,10a1,1,0,0,0-.22.15c-.24.22-.16.37.23.44l11.54,2.35,2.3.43c.59.11.82.28.75.61,0,.08-.08.13-.13.21l-.24.25L19.21,17a.78.78,0,0,0-.17.28c-.11.42.16.7.83.86l16.94,4a2.94,2.94,0,0,1,2.12,1.42A.83.83,0,0,1,39,24Z" style="fill:#f7701b"/><path d="M30.79.82c.06.45-1.18.82-2.76.82s-2.9-.37-3-.82S26.26,0,27.84,0,30.74.37,30.79.82Z" style="fill:#f7701b"/></g></g></svg>